<svg xmlns="http://www.w3.org/2000/svg" viewBox="-2 -5 24 24" width="28" fill="currentColor"><path d="M10.8581846,2.48015244 L10,2.8878315 L9.14181535,2.48015244 C8.47923473,2.16539472 7.75335379,2 7,2 C4.23857625,2 2,4.23857625 2,7 C2,9.76142375 4.23857625,12 7,12 C7.75335379,12 8.47923473,11.8346053 9.14181535,11.5198476 L10,11.1121685 L10.8581846,11.5198476 C11.5207653,11.8346053 12.2466462,12 13,12 C15.7614237,12 18,9.76142375 18,7 C18,4.23857625 15.7614237,2 13,2 C12.2466462,2 11.5207653,2.16539472 10.8581846,2.48015244 Z M13,0 C16.8659932,0 20,3.13400675 20,7 C20,10.8659932 16.8659932,14 13,14 C11.9264027,14 10.9092554,13.758309 10,13.3263688 C9.09074462,13.758309 8.07359729,14 7,14 C3.13400675,14 0,10.8659932 0,7 C0,3.13400675 3.13400675,0 7,0 C8.07359729,0 9.09074462,0.241691046 10,0.673631164 C10.9092554,0.241691045 11.9264027,0 13,0 Z M10,0.673631164 C10.9092554,0.241691045 11.9264027,0 13,0 C16.8659932,0 20,3.13400675 20,7 C20,10.8659932 16.8659932,14 13,14 C11.9264027,14 10.9092554,13.758309 10,13.3263688 C9.09074462,13.758309 8.07359729,14 7,14 C3.13400675,14 0,10.8659932 0,7 C0,3.13400675 3.13400675,0 7,0 C8.07359729,0 9.09074462,0.241691046 10,0.673631164 L10,0.673631164 Z M10,2.99963381 C8.7855533,3.91184014 8,5.36418217 8,7 C8,8.63581783 8.7855533,10.0881599 10,11.0003662 C11.2144467,10.0881599 12,8.63581783 12,7 C12,5.36418217 11.2144467,3.91184014 10,2.99963381 L10,2.99963381 Z M7,14 C3.13400675,14 0,10.8659932 0,7 C0,3.13400675 3.13400675,0 7,0 C8.07359729,0 9.09074462,0.241691045 10,0.673631164 C10.9092554,0.241691046 11.9264027,0 13,0 C16.8659932,0 20,3.13400675 20,7 C20,10.8659932 16.8659932,14 13,14 C11.9264027,14 10.9092554,13.758309 10,13.3263688 C9.09074462,13.758309 8.07359729,14 7,14 Z M7,2 C4.23857625,2 2,4.23857625 2,7 C2,9.76142375 4.23857625,12 7,12 C7.34275439,12 7.6774536,11.9655117 8.0008167,11.899816 C6.76314869,10.6372065 6,8.90772473 6,7 C6,5.09227527 6.76314869,3.36279347 8.0008167,2.10018397 C7.6774536,2.0344883 7.34275439,2 7,2 Z M14.0008167,7 C14.0008167,8.90772473 13.237668,10.6372065 12,11.899816 C12.3233631,11.9655117 12.6580623,12 13.0008167,12 C15.7622404,12 18.0008167,9.76142375 18.0008167,7 C18.0008167,4.23857625 15.7622404,2 13.0008167,2 C12.6580623,2 12.3233631,2.0344883 12,2.10018397 C13.237668,3.36279347 14.0008167,5.09227527 14.0008167,7 Z"></path></svg>