<!-- License: CC0 License. Made by SVG Repo: https://www.svgrepo.com/svg/400954/beach-ocean-sea-water-wave -->
<svg fill="#000000" width="40px" height="40px" viewBox="0 0 512 512" stroke-width="12" stroke="#000000"  stroke-linecap="round" stroke-linejoin="round" id="icon" version="1.1" xml:space="preserve" xmlns="http://www.w3.org/2000/svg" xmlns:xlink="http://www.w3.org/1999/xlink">
<path d="M106.8035965,360.2297058c0.0650024,0.0238953,0.1216049,0.0666809,0.1880035,0.0885925   c10.2118988,4.4396973,21.2959061,6.8283081,32.7538986,6.8283081c20.6387024,0,40.0513-7.5385132,55.2207031-21.3322144   c15.1651001,13.7937012,34.5771942,21.3322144,55.2158051,21.3322144c10.7539063,0,21.2294922-2.1383057,30.9472961-6.0935974   c0.1615906-0.0454102,0.309082-0.1098938,0.4653015-0.16922c10.1757813-4.2138977,19.4975891-10.4484863,27.3520813-18.4736938   c15.4492188,15.7906189,36.5429993,24.7365112,58.7593079,24.7365112c21.1162109,0,41.2216187-8.0953064,56.4331055-22.4619141   c0.0116882-0.0104065,0.023407-0.0185852,0.0346069-0.0292053c2.2197876-2.0983887,4.339386-4.3240967,6.3378906-6.6842957   c1.8887024-2.2352905,1.6094055-5.5776978-0.6206055-7.4714966c-2.2456055-1.8829956-5.5776062-1.6036072-7.4711914,0.6210022   c-1.2059937,1.425415-2.5184937,2.7290955-3.8193054,4.0462036c-29.559082-3.1033936-57.4086914-14.5657043-80.6591797-33.3768921   c-9.6572266-7.8137207-17.917511-16.8965149-24.7095032-27.053894c14.8671875,1.4095764,30.2832947-1.781311,43.9091797-10.2754211   c19.6918945-12.2776947,33.4185181-31.4933929,38.6596985-54.0977936   c5.2407227-22.6051025,1.360321-45.8977966-10.9174805-65.5892029c-15.1645203-24.3119965-38.8862-41.261795-66.7993164-47.7343979   c-21.8135071-5.0600967-44.1244812-3.1391983-64.4540863,5.1389999   c-22.3350067,3.290802-43.4536133,11.0590973-62.7769012,23.1054001   c-74.3266068,46.347496-110.3676071,135.1828003-90.488205,219.4818115   c-3.9462967-2.607605-7.6679993-5.6176147-11.1006012-9.0245056c-2.0644989-2.0539856-5.4272995-2.0487976-7.4916992,0.0310059   c-2.0590973,2.0748901-2.0488968,5.4277039,0.0311966,7.4917908   C89.1322021,350.5383911,97.6160965,356.2078857,106.8035965,360.2297058z M315.6932983,107.3612976   c25.1552124,5.8309021,46.5342102,21.1094055,60.1976929,43.0207977   c22.2583008,35.6893005,11.3311157,82.8283081-24.3583984,105.0864105   c-28.0527039,17.5029907-65.1229858,8.9042969-82.6107788-19.1487122   c-6.6333008-10.6321869-8.7285156-23.2097931-5.898407-35.4148865   c2.8299866-12.2052002,10.2440796-22.5841064,20.8764038-29.2118073   c8.2626953-5.1531067,18.0517883-6.7881012,27.5351868-4.5839996c9.4891968,2.1987,17.5551147,7.9626923,22.7080078,16.2304993   c1.5473022,2.4783936,4.8065796,3.2388,7.3007813,1.6918945c2.4833984-1.5470886,3.2387085-4.8171997,1.691925-7.3003998   c-6.6539001-10.668396-17.0635071-18.1033936-29.3101196-20.9440002   c-12.246582-2.8506012-24.8706055-0.7348938-35.5341797,5.9141083   c-13.0332031,8.1278992-22.1235046,20.8453979-25.5898132,35.8080902   c-3.4716949,14.9682007-0.9004059,30.38591,7.2275085,43.4192047   c9.3677063,15.0155945,23.5131836,25.2304077,39.2402039,30.0354919   c8.2055969,14.5870972,18.953186,27.4229126,32.1080017,38.0631104   c22.1971741,17.9570007,48.3104858,29.6901855,76.1532898,34.3594055   c-11.6607056,7.8036804-25.4003906,12.1639099-39.7246094,12.1639099c-21.0986938,0-41.0386047-9.26651-54.7133789-25.4242249   c-1.0088196-1.190094-2.4888-1.8783875-4.045929-1.8783875c-1.5575867,0-3.0370789,0.6882935-4.0458984,1.8728943   c-7.0131836,8.2901917-15.6913757,14.7294006-25.3134766,19.0708923   c-31.6587067-12.0195007-57.8955078-33.5122986-75.8979034-62.3811035   c-17.2705078-27.6905823-22.7183075-60.4462891-15.3511047-92.2345886   c7.367691-31.7882996,26.6768036-58.8013916,54.3672028-76.0663986   C264.6166077,105.8452988,290.5325928,101.5197983,315.6932983,107.3612976z M196.4613037,134.2754974   c8.1674957-5.093399,16.6929016-9.3236008,25.4946899-12.7661972   c-21.9833984,18.3850021-37.3574982,43.2690048-43.9389954,71.6762009   c-8.0097961,34.5457916-2.0854034,70.1421051,16.6806946,100.2334137   c16.9638062,27.2001953,40.7602081,48.2844849,69.3340149,61.7087708   c-4.5278931,0.8925171-9.151413,1.4227295-13.8497009,1.4227295c-19.5161133,0-37.7749023-7.7402039-51.4130096-21.7977295   c-0.9985962-1.0292969-2.3696899-1.6088867-3.8027954-1.6088867s-2.8041992,0.5795898-3.8027039,1.6088867   c-13.6436005,14.0575256-31.9024048,21.7977295-51.4179993,21.7977295c-9.2987976,0-18.3227005-1.7902222-26.7080002-5.1583252   C89.2835999,268.8634949,123.3314972,179.8789063,196.4613037,134.2754974z"/>
<path d="M422.4197998,381.716095c-13.6742859,16.1629944-33.6195984,25.4295959-54.7138062,25.4295959   c-21.0986938,0-41.0386047-9.2666016-54.7133789-25.4244995c-1.0088196-1.1900024-2.4888-1.8782043-4.045929-1.8782043   c-1.5575867,0-3.0370789,0.6882019-4.0458984,1.8731079c-13.6747742,16.1629944-33.6200867,25.4295959-54.7187805,25.4295959   c-19.5161133,0-37.7749023-7.7399902-51.4130096-21.797699c-0.9985962-1.0292053-2.3696899-1.6088867-3.8027954-1.6088867   s-2.8041992,0.5796814-3.8027039,1.6088867c-13.6436005,14.0577087-31.9024048,21.797699-51.4179993,21.797699   c-19.0345993,0-36.9618988-7.3883972-50.4813995-20.8094788c-2.0644989-2.0539246-5.4272995-2.0489197-7.4916992,0.0310974   c-2.0590973,2.0746765-2.0488968,5.4274902,0.0311966,7.4915771c15.5161057,15.4029236,36.092804,23.8830261,57.9419022,23.8830261   c20.6387024,0,40.0513-7.5385132,55.2207031-21.3321228c15.1651001,13.7936096,34.5771942,21.3321228,55.2158051,21.3321228   c22.2109985,0,43.3100891-8.9458008,58.764679-24.7365112c15.4492188,15.7907104,36.5429993,24.7365112,58.7593079,24.7365112   c24.2138062,0,47.1083984-10.6324158,62.805603-29.1755066c1.8887024-2.2351074,1.6094055-5.5775146-0.6206055-7.4710999   C427.6453857,379.2067871,424.313385,379.491394,422.4197998,381.716095z"/>
</svg>