# Blender v2.79 (sub 0) OBJ File: 'OSU_Ramp_89.46x_2.863y_3.66z_08032022.blend'
# www.blender.org
mtllib OSU_Ramp_89.46x_2.863y_3.66z_08032022-Cube_001.mtl
o Cube.001
v 0.000000 0.000000 0.500000
v 30.906000 0.000000 -1.140420
v 0.000000 0.000000 0.000000
v 16.275000 0.000000 -0.226000
v 2.000000 0.000000 0.500000
v 19.993000 0.000000 -0.226000
v 2.000000 0.000000 0.000000
v 16.275000 0.000000 0.000000
v 45.535999 0.000000 -1.750000
v 82.106003 0.000000 -1.750000
v 89.459999 0.000000 -2.362830
v 89.459999 0.000000 0.500000
v 82.106003 0.000000 0.500000
v 45.535999 0.000000 0.500000
v 30.906000 0.000000 0.500000
v 19.993000 0.000000 0.500000
v 16.275000 0.000000 0.500000
v 0.000000 3.660000 0.500000
v 30.906000 3.660000 -1.140420
v 0.000000 3.660000 0.000000
v 16.275000 3.660000 -0.226000
v 2.000000 3.660000 0.500000
v 19.993000 3.660000 -0.226000
v 2.000000 3.660000 0.000000
v 16.275000 3.660000 0.000000
v 45.535999 3.660000 -1.750000
v 82.106003 3.660000 -1.750000
v 89.459999 3.660000 -2.362830
v 89.459999 3.660000 0.500000
v 82.106003 3.660000 0.500000
v 45.535999 3.660000 0.500000
v 30.906000 3.660000 0.500000
v 19.993000 3.660000 0.500000
v 16.275000 3.660000 0.500000
vn 0.0000 -1.0000 0.0000
vn 0.0000 1.0000 0.0000
vn 0.0000 0.0000 -1.0000
vn 0.0000 0.0000 1.0000
vn -1.0000 0.0000 0.0000
vn 1.0000 0.0000 0.0000
vn -0.0830 0.0000 -0.9965
vn -0.0835 0.0000 -0.9965
vn -0.0416 0.0000 -0.9991
usemtl None
s off
f 10//1 11//1 12//1
f 12//1 13//1 10//1
f 6//1 2//1 15//1
f 9//1 13//1 14//1
f 8//1 4//1 6//1
f 2//1 9//1 14//1
f 1//1 3//1 7//1
f 8//1 5//1 7//1
f 5//1 1//1 7//1
f 13//1 9//1 10//1
f 5//1 8//1 17//1
f 17//1 8//1 16//1
f 8//1 6//1 16//1
f 2//1 14//1 15//1
f 6//1 15//1 16//1
f 27//2 29//2 28//2
f 29//2 27//2 30//2
f 23//2 32//2 19//2
f 26//2 31//2 30//2
f 25//2 23//2 21//2
f 19//2 31//2 26//2
f 18//2 24//2 20//2
f 25//2 24//2 22//2
f 22//2 24//2 18//2
f 30//2 27//2 26//2
f 22//2 34//2 25//2
f 34//2 33//2 25//2
f 25//2 33//2 23//2
f 19//2 32//2 31//2
f 23//2 33//2 32//2
f 6//3 4//3 21//3 23//3
f 15//4 14//4 31//4 32//4
f 4//5 8//5 25//5 21//5
f 16//4 15//4 32//4 33//4
f 8//3 7//3 24//3 25//3
f 3//5 1//5 18//5 20//5
f 17//4 16//4 33//4 34//4
f 12//6 11//6 28//6 29//6
f 11//7 10//7 27//7 28//7
f 5//4 17//4 34//4 22//4
f 10//3 9//3 26//3 27//3
f 13//4 12//4 29//4 30//4
f 1//4 5//4 22//4 18//4
f 2//8 6//8 23//8 19//8
f 9//9 2//9 19//9 26//9
f 7//3 3//3 20//3 24//3
f 14//4 13//4 30//4 31//4
