solid building
   facet normal -1.000000e+00 0.000000e+00 0.000000e+00
      outer loop
         vertex 3.410000e+01 4.800000e+00 1.500000e+00
         vertex 3.410000e+01 5.200000e+00 1.500000e+00
         vertex 3.410000e+01 4.800000e+00 1.000000e+00
      endloop
   endfacet
   facet normal -1.000000e+00 0.000000e+00 0.000000e+00
      outer loop
         vertex 3.410000e+01 4.800000e+00 1.000000e+00
         vertex 3.410000e+01 5.200000e+00 1.500000e+00
         vertex 3.410000e+01 5.200000e+00 1.000000e+00
      endloop
   endfacet
   facet normal -0.000000e+00 -1.000000e+00 -0.000000e+00
      outer loop
         vertex 3.450000e+01 4.800000e+00 1.500000e+00
         vertex 3.410000e+01 4.800000e+00 1.500000e+00
         vertex 3.450000e+01 4.800000e+00 1.000000e+00
      endloop
   endfacet
   facet normal 0.000000e+00 -1.000000e+00 0.000000e+00
      outer loop
         vertex 3.450000e+01 4.800000e+00 1.000000e+00
         vertex 3.410000e+01 4.800000e+00 1.500000e+00
         vertex 3.410000e+01 4.800000e+00 1.000000e+00
      endloop
   endfacet
   facet normal 1.000000e+00 0.000000e+00 0.000000e+00
      outer loop
         vertex 3.450000e+01 5.200000e+00 1.500000e+00
         vertex 3.450000e+01 4.800000e+00 1.500000e+00
         vertex 3.450000e+01 5.200000e+00 1.000000e+00
      endloop
   endfacet
   facet normal 1.000000e+00 0.000000e+00 0.000000e+00
      outer loop
         vertex 3.450000e+01 5.200000e+00 1.000000e+00
         vertex 3.450000e+01 4.800000e+00 1.500000e+00
         vertex 3.450000e+01 4.800000e+00 1.000000e+00
      endloop
   endfacet
   facet normal -0.000000e+00 1.000000e+00 0.000000e+00
      outer loop
         vertex 3.410000e+01 5.200000e+00 1.500000e+00
         vertex 3.450000e+01 5.200000e+00 1.500000e+00
         vertex 3.410000e+01 5.200000e+00 1.000000e+00
      endloop
   endfacet
   facet normal 0.000000e+00 1.000000e+00 0.000000e+00
      outer loop
         vertex 3.410000e+01 5.200000e+00 1.000000e+00
         vertex 3.450000e+01 5.200000e+00 1.500000e+00
         vertex 3.450000e+01 5.200000e+00 1.000000e+00
      endloop
   endfacet
   facet normal 0.000000e+00 -0.000000e+00 1.000000e+00
      outer loop
         vertex 3.450000e+01 4.800000e+00 1.500000e+00
         vertex 3.450000e+01 5.200000e+00 1.500000e+00
         vertex 3.410000e+01 4.800000e+00 1.500000e+00
      endloop
   endfacet
   facet normal 0.000000e+00 0.000000e+00 1.000000e+00
      outer loop
         vertex 3.410000e+01 4.800000e+00 1.500000e+00
         vertex 3.450000e+01 5.200000e+00 1.500000e+00
         vertex 3.410000e+01 5.200000e+00 1.500000e+00
      endloop
   endfacet
   facet normal 0.000000e+00 0.000000e+00 -1.000000e+00
      outer loop
         vertex 3.450000e+01 4.800000e+00 1.000000e+00
         vertex 3.410000e+01 4.800000e+00 1.000000e+00
         vertex 3.450000e+01 5.200000e+00 1.000000e+00
      endloop
   endfacet
   facet normal -0.000000e+00 0.000000e+00 -1.000000e+00
      outer loop
         vertex 3.450000e+01 5.200000e+00 1.000000e+00
         vertex 3.410000e+01 4.800000e+00 1.000000e+00
         vertex 3.410000e+01 5.200000e+00 1.000000e+00
      endloop
   endfacet
endsolid