<svg version="1.1" id="Layer_1" xmlns="http://www.w3.org/2000/svg" xmlns:xlink="http://www.w3.org/1999/xlink" x="0px" y="0px"
	 width="100%" viewBox="0 0 562 512" enable-background="new 0 0 562 512" xml:space="preserve">
<path fill="#1E6DC7" opacity="1.000000" stroke="none" 
	d="
M1.000000,312.399994 
	C17.322687,311.950989 33.645363,311.865234 49.968067,311.859772 
	C103.608788,311.841827 157.249512,311.853027 210.890244,311.853058 
	C212.638016,311.853058 214.385773,311.853058 217.191956,311.853058 
	C180.498627,356.332184 144.509094,399.958160 107.994942,444.220093 
	C72.362816,401.468506 36.928806,358.954620 1.247397,316.220367 
	C1.000000,314.933319 1.000000,313.866669 1.000000,312.399994 
M157.902878,375.689087 
	C156.432831,376.779266 154.970352,377.879852 153.491531,378.958038 
	C141.901749,387.407806 130.119263,395.499359 116.034576,399.380554 
	C102.350365,403.151337 90.308815,400.531860 80.398224,390.063873 
	C70.714722,379.835693 70.481888,363.940521 79.745865,354.854553 
	C85.926704,348.792480 95.738144,347.325256 103.332603,351.327301 
	C110.180054,354.935760 113.901825,362.720917 112.208336,371.315735 
	C111.301102,375.920135 109.355278,380.319916 107.936943,384.633148 
	C119.203171,383.821655 128.162186,368.884430 124.370216,356.419189 
	C120.809319,344.713562 108.873947,334.960327 96.928467,333.994690 
	C80.029861,332.628662 68.232971,337.995392 62.411808,351.120239 
	C59.504097,357.676178 58.652046,365.136292 56.786285,372.165161 
	C55.868618,375.622314 57.213795,378.132446 59.406258,380.720337 
	C69.521942,392.660400 79.480789,404.733246 89.507492,416.748779 
	C95.545738,423.984741 101.605354,431.202820 107.983833,438.821289 
	C111.983185,433.991364 115.590256,429.679321 119.149948,425.328522 
	C132.527771,408.977570 145.890106,392.613953 159.746246,375.985199 
	C159.334641,375.782135 158.923019,375.579071 157.902878,375.689087 
z"/>
<path fill="#C94844" opacity="1.000000" stroke="none" 
	d="
M513.000000,317.571533 
	C503.409912,329.406036 493.739807,340.745941 484.248199,352.233307 
	C469.454681,370.137421 454.782318,388.141693 439.514130,406.483826 
	C418.115326,406.848236 397.260986,406.832367 376.406677,406.816498 
	C369.856049,398.656677 363.414307,390.406494 356.733917,382.354309 
	C338.016022,359.792847 319.198486,337.314056 300.427917,314.796265 
	C299.912659,314.178162 299.484955,313.487061 298.212067,311.701843 
	C344.488556,311.701843 389.818634,311.701843 435.724854,311.444641 
	C445.868286,314.513214 455.435547,317.838989 464.699615,321.404419 
	C462.810303,323.543671 461.224182,325.443207 459.430695,327.591156 
	C463.294312,333.298492 467.035065,338.824280 470.775818,344.350067 
	C471.725067,340.246307 471.977936,336.480164 471.654022,332.764252 
	C471.329437,329.040710 472.557495,326.572540 475.632355,324.428192 
	C479.346710,321.837891 482.689850,318.715393 487.131592,315.048981 
	C481.359009,315.048981 476.916504,315.048981 472.646820,314.717102 
	C473.932495,313.352936 475.045319,312.320679 476.158142,311.288391 
	C485.661621,311.480133 495.164948,311.680298 504.668701,311.857819 
	C507.134583,311.903900 509.601807,311.879059 512.534180,311.943359 
	C513.000000,313.714355 513.000000,315.428711 513.000000,317.571533 
M418.534241,315.099243 
	C410.444061,313.656219 404.284943,316.660583 398.782318,322.612610 
	C393.784363,328.018768 387.967041,332.667480 382.252594,337.886047 
	C388.876770,343.576477 394.766754,348.957581 401.022003,353.873993 
	C404.142609,356.326721 405.061279,358.846161 404.707031,362.752899 
	C403.642334,374.493439 403.040314,386.275909 402.257812,398.042023 
	C410.211731,385.319641 417.353729,372.413849 424.242828,359.374451 
	C424.792084,358.334839 424.069641,355.928284 423.125580,354.911438 
	C418.273499,349.685303 413.155609,344.705902 407.955139,339.463531 
	C417.927307,331.583008 427.761810,323.811218 438.786041,315.099274 
	C431.334351,315.099274 425.428314,315.099274 418.534241,315.099243 
M342.853699,315.089172 
	C341.133423,315.089172 339.413116,315.089172 336.482269,315.089172 
	C340.337219,318.571716 343.034363,321.274078 346.013794,323.617523 
	C348.485474,325.561554 349.515778,327.689423 349.079865,330.880371 
	C348.485168,335.233612 348.325623,339.646271 347.865875,345.473663 
	C353.616943,338.490936 358.429413,332.647797 363.152283,326.913452 
	C356.949585,315.088959 356.949585,315.088989 344.256256,315.089386 
	C344.089691,315.089386 343.923096,315.089294 342.853699,315.089172 
z"/>
<path fill="#4DA69E" opacity="1.000000" stroke="none" 
	d="
M286.139526,351.179688 
	C301.197754,369.394714 316.235565,387.626678 331.321228,405.818939 
	C341.630768,418.251404 352.010437,430.625702 362.344757,443.037720 
	C362.944733,443.758270 363.418732,444.583710 364.284058,445.845459 
	C291.300140,445.845459 218.988190,445.845459 145.763092,445.845459 
	C150.428207,440.137451 154.666153,434.909210 158.949478,429.718414 
	C179.932480,404.290314 200.928543,378.872986 221.911407,353.444733 
	C222.329803,352.937683 222.643524,352.344269 223.495102,351.405579 
	C229.311295,351.056671 234.638458,351.093353 239.756989,351.383118 
	C232.378571,355.413574 225.208786,359.190979 218.039001,362.968384 
	C218.290421,363.440613 218.541840,363.912842 218.793259,364.385071 
	C227.819565,361.210236 236.754471,357.848907 244.499924,351.072205 
	C254.438080,351.118744 263.911346,351.204041 273.239380,351.599426 
	C269.958862,354.195190 266.820679,356.476898 263.690002,358.768890 
	C262.726929,359.473938 261.580170,360.050903 260.881653,360.964844 
	C259.907471,362.239380 259.638062,364.350006 258.438599,365.107300 
	C249.898010,370.499268 241.326233,375.869659 232.501282,380.773468 
	C226.825211,383.927490 220.753174,386.541229 214.473923,384.238159 
	C209.153458,392.616058 198.311066,389.114563 192.524124,395.415680 
	C198.728363,394.612762 204.650696,393.069214 210.637146,391.837402 
	C212.874908,391.376923 215.539261,392.293915 217.525894,391.448029 
	C222.220627,389.449036 226.674591,386.856598 231.137436,384.346771 
	C240.971832,378.816101 250.727554,373.145386 260.573425,367.635498 
	C262.583954,366.510406 265.525452,366.418640 266.866913,364.849518 
	C270.516632,360.580536 273.539185,355.775330 277.275391,351.132263 
	C280.540192,351.114532 283.339874,351.147095 286.139526,351.179688 
M288.905121,375.469147 
	C294.002930,367.721497 294.002930,367.721497 292.126190,365.072754 
	C288.665436,371.538177 285.102142,377.819794 277.404266,379.699188 
	C279.267120,384.577026 273.760498,390.574738 259.504395,399.047974 
	C251.267075,403.943909 243.140900,409.546112 233.361862,408.045990 
	C231.922531,409.745056 231.104919,411.685913 229.802063,412.099976 
	C213.679871,417.223938 197.485199,422.119781 181.316269,427.097290 
	C180.276199,427.417480 179.107208,427.710449 178.323257,428.390686 
	C176.609711,429.877563 175.260895,431.804382 173.483673,433.194183 
	C169.692383,436.158966 165.723312,438.896454 161.827103,441.727081 
	C162.139450,442.211151 162.451782,442.695221 162.764130,443.179321 
	C164.015915,442.606537 165.335617,442.146332 166.506775,441.439880 
	C170.058334,439.297546 173.461334,436.889221 177.112717,434.941681 
	C178.617325,434.139160 180.607788,434.247528 181.556747,434.083466 
	C186.582932,431.279083 190.864563,428.087860 195.672470,426.366638 
	C207.397842,422.169037 219.347946,418.590027 231.264008,414.946594 
	C232.638214,414.526398 234.369324,415.273438 235.399780,415.408936 
	C238.919586,413.267700 242.162689,411.302704 245.398041,409.325104 
	C255.293671,403.276398 265.441132,397.593231 274.982361,391.029114 
	C280.500763,387.232635 286.583740,383.379730 288.905121,375.469147 
M301.493561,390.970581 
	C306.225861,383.147552 306.225861,383.147552 304.931885,380.223755 
	C299.177063,387.989075 296.760315,398.508972 287.543091,401.415131 
	C286.262543,404.289764 285.936981,406.316437 284.753174,407.434021 
	C281.255157,410.736420 277.725159,414.183105 273.654449,416.666656 
	C262.397705,423.534393 251.642166,431.917328 237.259933,431.047485 
	C236.540878,431.003998 235.745926,432.134247 234.994415,432.728180 
	C234.038559,433.483673 233.204285,434.564056 232.119568,434.955048 
	C228.057709,436.419250 223.932510,437.717102 219.797531,438.966370 
	C216.143326,440.070465 212.444473,441.026794 208.765320,442.048340 
	C208.918732,442.633545 209.072144,443.218750 209.225555,443.803955 
	C215.476624,442.365875 221.719284,440.889923 227.980972,439.499603 
	C235.280365,437.878937 242.295700,435.779236 249.252930,432.708313 
	C263.237610,426.535492 276.422119,419.454590 287.587097,408.868378 
	C288.744690,407.770813 290.772583,407.591125 291.848969,407.189758 
	C295.035645,401.824463 298.073822,396.709198 301.493561,390.970581 
M308.421906,429.111816 
	C309.856506,429.034332 311.291107,428.956848 311.897156,428.924103 
	C316.743256,422.403900 321.330872,416.321472 325.791656,410.147369 
	C326.602631,409.024994 326.894928,407.527924 327.426636,406.203827 
	C326.986816,406.017151 326.546967,405.830475 326.107117,405.643768 
	C323.204346,409.240234 320.409729,412.931061 317.372589,416.410217 
	C313.201447,421.188324 306.929047,423.410614 303.224213,429.176453 
	C301.037872,432.579102 295.948395,434.182129 292.055359,436.403198 
	C288.409363,438.483276 284.619537,440.311310 280.893005,442.250244 
	C291.502472,441.222656 299.676849,435.325653 308.421906,429.111816 
M337.910767,425.336884 
	C333.374146,431.283325 328.837494,437.229736 324.693970,442.660919 
	C331.028076,442.634644 342.931976,427.623657 339.661102,421.988739 
	C339.125031,422.957672 338.656464,423.804504 337.910767,425.336884 
z"/>
<path fill="#ffffff" opacity="1.000000" stroke="none" 
	d="
M122.662994,59.330055 
	C126.486031,58.887840 125.861656,61.294968 125.864029,63.195847 
	C125.877747,74.189507 125.870850,85.183197 125.870857,96.176872 
	C125.870888,131.488007 125.870872,166.799149 125.870872,202.509583 
	C117.902176,202.509583 110.033615,202.509583 101.653404,202.509583 
	C101.653404,181.956360 101.653404,161.379837 101.653404,140.539368 
	C86.218353,140.539368 71.284737,140.539368 55.886780,140.539368 
	C55.886780,161.054321 55.886780,181.630844 55.886780,202.556656 
	C47.699394,202.556656 39.960472,202.556656 31.832712,202.556656 
	C31.832712,155.053802 31.832712,107.396729 31.832712,59.561325 
	C39.747509,59.561325 47.488461,59.561325 55.623180,59.561325 
	C55.623180,78.210976 55.623180,96.634598 55.623180,115.402695 
	C71.036522,115.402695 86.058578,115.402695 101.677429,115.402695 
	C101.677429,96.725327 101.677429,78.170380 101.677429,59.329521 
	C108.911064,59.329521 115.553215,59.329521 122.662994,59.330055 
z"/>
<path fill="#ffffff" opacity="1.000000" stroke="none" 
	d="
M260.052673,202.924393 
	C249.313950,197.182343 242.593018,188.111191 239.314194,176.640259 
	C234.360718,159.310486 234.417542,141.817566 239.160217,124.425346 
	C241.639999,115.331596 246.566086,107.717613 254.293991,102.156654 
	C266.213196,93.579689 281.185852,94.787971 291.693573,105.015923 
	C292.968811,106.257179 294.404175,107.333939 296.103577,108.773445 
	C296.103577,92.424210 296.103577,76.102165 296.103577,59.562866 
	C304.093536,59.562866 311.497406,59.562866 319.139404,59.562866 
	C319.139404,107.293869 319.139404,154.846802 319.139404,202.652222 
	C312.102753,202.652222 305.213593,202.652222 297.989380,202.652222 
	C297.989380,198.491135 297.989380,194.565643 297.989380,190.748383 
	C292.732941,194.859589 287.646393,198.837891 282.311768,202.633606 
	C281.962860,202.012009 281.862030,201.573013 281.866333,200.690796 
	C281.359131,198.806595 280.804474,196.145767 280.125427,196.113647 
	C273.490845,195.799713 266.835510,195.924561 259.901337,195.924561 
	C260.007690,198.239502 260.074585,199.696091 260.032501,201.449356 
	C259.966583,202.138809 260.009613,202.531601 260.052673,202.924393 
M283.957642,181.897949 
	C286.828552,178.755997 290.850800,176.086334 292.367462,172.388885 
	C298.356934,157.787521 298.036896,142.798599 292.281403,128.170074 
	C289.900970,122.119705 285.085175,118.108047 278.154449,117.921181 
	C271.161285,117.732635 266.151611,121.653214 263.642151,127.594475 
	C257.128937,143.014801 257.253235,158.823013 263.956207,174.108795 
	C267.416077,181.998840 274.985474,184.543533 283.957642,181.897949 
z"/>
<path fill="#1D6CC5" opacity="1.000000" stroke="none" 
	d="
M465.002838,321.164764 
	C455.435547,317.838989 445.868286,314.513214 435.899323,311.103607 
	C434.745972,310.673096 433.886139,310.461548 433.258850,309.959442 
	C423.794464,302.383850 412.232941,303.613861 401.262085,302.070190 
	C378.891815,298.922485 363.035400,280.449463 361.142120,258.542023 
	C360.339661,249.257004 360.731750,239.558228 362.525604,230.429642 
	C365.464142,215.476028 374.938660,204.860779 389.256470,198.027206 
	C390.625183,197.646027 391.321930,197.291306 392.018707,196.936584 
	C392.018707,196.936584 391.996948,197.001892 392.315674,197.017792 
	C393.429840,196.666550 394.225220,196.299423 395.020630,195.932297 
	C395.020630,195.932297 394.995300,195.998779 395.337219,196.016617 
	C396.791687,195.661560 397.904266,195.288651 399.016815,194.915756 
	C399.016815,194.915756 398.992737,194.985977 399.401123,195.007660 
	C406.901093,194.682983 413.992676,194.336655 421.488159,193.982697 
	C432.294739,194.860138 441.192047,199.441940 449.588776,205.253082 
	C472.994110,227.072464 474.029694,279.801361 439.256744,299.098480 
	C452.293213,302.077118 465.329681,305.055756 478.346375,308.029846 
	C477.997742,308.490234 477.153778,309.604797 476.233978,311.003906 
	C475.045319,312.320679 473.932495,313.352936 472.347229,314.751007 
	C469.584167,317.132812 467.293518,319.148773 465.002838,321.164764 
M389.592896,274.748932 
	C393.415405,281.561951 399.702393,285.254791 406.663422,287.946869 
	C416.731476,291.840576 431.909851,284.250275 436.937531,273.897827 
	C444.869995,257.564178 444.897430,241.059982 437.974457,224.523819 
	C433.768555,214.477676 425.796600,208.968567 414.987518,208.196930 
	C404.086517,207.418701 395.507996,211.891846 389.816498,221.269684 
	C388.315765,223.742477 387.952789,226.878510 386.659302,229.509369 
	C382.380493,238.212189 383.279541,247.452927 384.314240,256.462738 
	C385.001892,262.450745 387.536835,268.226624 389.592896,274.748932 
z"/>
<path fill="#ffffff" opacity="1.000000" stroke="none" 
	d="
M189.498093,222.576813 
	C183.610474,238.930756 173.805588,248.100632 149.778824,244.125351 
	C147.165970,243.693039 146.198578,242.698212 146.070831,239.990433 
	C145.790253,234.042389 145.094147,228.113937 144.530624,221.759644 
	C146.367462,221.973984 147.805634,222.112549 149.235092,222.313141 
	C163.857193,224.365036 174.125778,212.069839 169.694229,197.828979 
	C159.513000,165.111496 149.343430,132.390381 139.033188,99.233551 
	C147.245255,99.233551 155.113235,99.233551 163.528427,99.233551 
	C169.927429,122.624626 176.388382,146.242172 182.849335,169.859711 
	C183.182465,169.960754 183.515610,170.061813 183.848740,170.162872 
	C190.258331,146.589508 196.667923,123.016144 203.150192,99.175476 
	C210.959946,99.175476 218.696335,99.175476 226.771042,99.175476 
	C221.153137,117.856941 215.608139,136.342972 210.033936,154.820190 
	C203.254486,177.292480 196.450455,199.757370 189.498093,222.576813 
z"/>
<path fill="#ffffff" opacity="1.000000" stroke="none" 
	d="
M450.004425,205.149628 
	C441.192047,199.441940 432.294739,194.860138 421.183228,193.762192 
	C418.038818,193.003647 415.603363,192.457993 413.167877,191.912354 
	C401.935059,179.631302 399.625031,164.546799 399.675659,148.751022 
	C399.719635,135.027466 403.394592,122.456856 411.992279,111.570999 
	C428.416656,90.775436 460.712677,91.467583 476.275543,112.910835 
	C491.418701,133.775711 491.748230,165.986679 477.140961,187.280685 
	C470.593414,196.825516 461.513245,202.412994 450.004425,205.149628 
M434.040649,122.350075 
	C419.385925,131.877884 420.807190,165.944855 430.274567,176.003464 
	C439.088531,185.367844 452.449860,184.852768 458.813232,173.290894 
	C466.767029,158.839294 466.746399,143.451721 458.914917,128.882889 
	C453.641479,119.072807 444.147827,116.909241 434.040649,122.350075 
z"/>
<path fill="#1D6CC5" opacity="1.000000" stroke="none" 
	d="
M260.012085,202.923981 
	C260.009613,202.531601 259.966583,202.138809 260.283783,201.142639 
	C260.906921,198.127869 261.798645,196.710907 264.680939,196.912201 
	C268.461426,197.176208 272.314392,197.317596 276.061737,196.877655 
	C279.664825,196.454636 281.056671,198.118179 281.761200,201.134003 
	C281.862030,201.573013 281.962860,202.012009 281.991241,202.782776 
	C281.918793,203.114548 282.126648,203.375793 281.763306,203.875687 
	C281.266479,205.189407 281.017303,206.003113 281.016510,206.817062 
	C280.998169,225.645172 280.989532,244.473358 281.049286,263.301300 
	C281.053253,264.555725 281.613678,265.808350 281.915283,267.061829 
	C282.225220,269.045441 282.578918,271.023376 282.837799,273.013641 
	C284.263092,283.971436 295.783386,290.064117 305.517700,288.957275 
	C315.339508,287.840424 321.678406,279.740997 322.481689,267.206543 
	C323.259247,264.984924 323.868164,263.278046 323.873962,261.569092 
	C323.941895,241.611115 324.002075,221.652161 323.844971,201.695206 
	C323.816132,198.032074 324.785339,196.667358 328.594513,196.829117 
	C332.157715,196.980408 335.755890,196.307770 339.338684,195.997742 
	C339.338684,195.997742 339.613342,195.826660 339.946533,195.810577 
	C340.441223,195.860245 340.602783,195.925980 340.835815,196.397919 
	C341.274109,198.606155 341.640869,200.408188 342.093079,202.479233 
	C342.094330,202.916519 342.010101,203.084793 341.925903,203.253082 
	C341.925903,203.253082 342.111176,203.383041 341.797913,203.860413 
	C341.345612,205.150482 341.086487,205.962982 341.085266,206.775894 
	C341.057648,225.434738 341.044067,244.093674 341.089417,262.752441 
	C341.092072,263.835388 341.615417,264.917114 341.896454,265.999390 
	C340.434601,272.801056 339.985443,280.042175 337.270111,286.299957 
	C333.336823,295.364716 324.222076,299.129211 315.448517,301.662720 
	C305.168518,304.631195 294.361664,304.153198 284.233307,300.621307 
	C272.387482,296.490479 263.693481,288.768127 261.344727,275.099121 
	C261.433350,269.334412 261.045807,264.220520 261.021423,259.104919 
	C260.940369,242.113312 261.019775,225.120926 260.943573,208.129257 
	C260.935913,206.417542 260.290070,204.708664 259.940399,202.998474 
	C259.940399,202.998474 259.971527,202.923553 260.012085,202.923981 
z"/>
<path fill="#ffffff" opacity="1.000000" stroke="none" 
	d="
M340.764343,195.991699 
	C340.602783,195.925980 340.441223,195.860245 340.055237,195.930405 
	C339.950073,194.081802 340.171783,192.097366 340.173340,190.112778 
	C340.195831,161.645477 340.188690,133.178177 340.188690,104.710869 
	C340.188690,102.919472 340.188690,101.128075 340.188690,99.107513 
	C347.393982,99.107513 354.155212,99.107513 361.366699,99.107513 
	C361.366699,102.945030 361.366699,106.713242 361.366699,109.757591 
	C366.244843,105.591316 370.616882,100.138481 376.297150,97.459122 
	C382.792267,94.395378 389.572205,97.414749 395.646942,101.805840 
	C393.305145,109.815453 390.985931,117.747826 388.653168,125.726532 
	C374.789215,118.117264 366.953674,121.618698 364.957520,137.201630 
	C363.504211,148.546814 363.472321,160.093765 363.166077,171.560364 
	C362.891693,181.833115 363.108307,192.118988 363.108307,202.992889 
	C356.071655,202.992889 349.460449,202.992889 342.387573,203.122986 
	C342.010101,203.084793 342.094330,202.916519 342.148315,202.039566 
	C341.666840,199.551147 341.215576,197.771423 340.764343,195.991699 
z"/>
<path fill="#CA4945" opacity="1.000000" stroke="none" 
	d="
M433.012756,413.969116 
	C424.955109,423.894379 416.897430,433.819641 408.386627,444.303040 
	C400.030579,434.254181 391.906708,424.484497 384.127533,414.341370 
	C400.652435,413.968353 416.832611,413.968719 433.012756,413.969116 
z"/>
<path fill="#595B5B" opacity="1.000000" stroke="none" 
	d="
M273.384613,351.289307 
	C263.911346,351.204041 254.438080,351.118744 244.092361,351.037842 
	C242.135147,351.071472 241.050369,351.100739 239.965607,351.130005 
	C234.638458,351.093353 229.311295,351.056671 223.530472,351.063904 
	C216.619949,351.107758 210.163101,351.107758 203.406982,351.107758 
	C203.406982,348.779602 203.406982,346.864868 203.406982,344.084747 
	C211.896683,344.084747 220.465317,344.084747 229.965820,344.056702 
	C237.342438,343.984192 243.787186,343.939728 250.609985,343.974243 
	C252.018265,344.032104 253.048508,344.010895 254.541656,344.019684 
	C263.107544,343.987488 271.210480,343.925293 279.313446,343.863098 
	C288.407074,343.863098 297.500702,343.863098 306.830994,343.863098 
	C306.830994,346.573914 306.830994,348.501923 306.830994,351.091736 
	C300.244202,351.091736 293.651520,351.091736 286.599182,351.135712 
	C283.339874,351.147095 280.540192,351.114532 276.930481,351.087128 
	C275.208496,351.157990 274.296570,351.223663 273.384613,351.289307 
z"/>
<path fill="#5F5B5B" opacity="01.000000" stroke="none" 
	d="
M433.473480,413.882904 
	C416.832611,413.968719 400.652435,413.968353 383.961426,414.027222 
	C374.415100,414.086456 365.379578,414.086456 356.110413,414.086456 
	C356.110413,411.229645 356.110413,409.318298 356.110413,406.807495 
	C362.588043,406.807495 368.979126,406.807495 375.888458,406.812012 
	C397.260986,406.832367 418.115326,406.848236 439.414154,406.804871 
	C446.301422,406.745636 452.744141,406.745636 459.516632,406.745636 
	C459.516632,409.070557 459.516632,410.971161 459.516632,413.796692 
	C451.030762,413.796692 442.482483,413.796692 433.473480,413.882904 
z"/>
<path fill="#4FA79F" opacity="1.000000" stroke="none" 
	d="
M279.187042,343.540710 
	C271.210480,343.925293 263.107544,343.987488 254.709106,343.739258 
	C258.305359,339.662537 262.493347,336.111603 263.865570,333.189911 
	C260.319916,335.974030 255.275909,339.934631 250.231918,343.895233 
	C243.787186,343.939728 237.342438,343.984192 230.428101,343.991516 
	C237.994644,334.066101 246.030777,324.177856 254.547882,313.697784 
	C262.893127,323.747864 270.976868,333.483063 279.187042,343.540710 
z"/>
<path fill="#1D6CC5" opacity="1.000000" stroke="none" 
	d="
M338.842896,195.903107 
	C335.755890,196.307770 332.157715,196.980408 328.594513,196.829117 
	C324.785339,196.667358 323.816132,198.032074 323.844971,201.695206 
	C324.002075,221.652161 323.941895,241.611115 323.873962,261.569092 
	C323.868164,263.278046 323.259247,264.984924 322.556976,266.776123 
	C322.367554,256.446198 322.639771,246.033600 322.713440,235.619583 
	C322.805908,222.551300 322.735687,209.481857 322.735687,195.808472 
	C328.196136,195.808472 333.271637,195.808472 338.842896,195.903107 
z"/>
<path fill="#1D6CC5" opacity="1.000000" stroke="none" 
	d="
M259.875610,203.464706 
	C260.290070,204.708664 260.935913,206.417542 260.943573,208.129257 
	C261.019775,225.120926 260.940369,242.113312 261.021423,259.104919 
	C261.045807,264.220520 261.433350,269.334412 261.393402,274.714722 
	C260.687744,270.210266 259.896271,265.442871 259.859802,260.669678 
	C259.715210,241.757736 259.806793,222.844009 259.875610,203.464706 
z"/>
<path fill="#1D6CC5" opacity="1.000000" stroke="none" 
	d="
M282.085907,266.612274 
	C281.613678,265.808350 281.053253,264.555725 281.049286,263.301300 
	C280.989532,244.473358 280.998169,225.645172 281.016510,206.817062 
	C281.017303,206.003113 281.266479,205.189407 281.678833,204.019653 
	C282.057312,224.496735 282.156921,245.329727 282.085907,266.612274 
z"/>
<path fill="#1D6CC5" opacity="1.000000" stroke="none" 
	d="
M341.991394,265.538147 
	C341.615417,264.917114 341.092072,263.835388 341.089417,262.752441 
	C341.044067,244.093674 341.057648,225.434738 341.085266,206.775894 
	C341.086487,205.962982 341.345612,205.150482 341.751526,203.963623 
	C342.041016,224.085251 342.063660,244.581070 341.991394,265.538147 
z"/>
<path fill="#1D6CC5" opacity="1.000000" stroke="none" 
	d="
M412.956451,192.291779 
	C415.603363,192.457993 418.038818,193.003647 420.779266,193.769806 
	C413.992676,194.336655 406.901093,194.682983 399.366882,194.993347 
	C403.531189,194.195312 408.138092,193.433258 412.956451,192.291779 
z"/>
<path fill="#1D6CC5" opacity="1.000000" stroke="none" 
	d="
M281.866333,200.690796 
	C281.056671,198.118179 279.664825,196.454636 276.061737,196.877655 
	C272.314392,197.317596 268.461426,197.176208 264.680939,196.912201 
	C261.798645,196.710907 260.906921,198.127869 260.392761,200.845978 
	C260.074585,199.696091 260.007690,198.239502 259.901337,195.924561 
	C266.835510,195.924561 273.490845,195.799713 280.125427,196.113647 
	C280.804474,196.145767 281.359131,198.806595 281.866333,200.690796 
z"/>
<line x1="552" y1="0" x2="552" y2="512" style="stroke: white; stroke-width: 5;"/>
</svg>