solid ASCII
facet normal  -0.5468014174 -7.850500E-17 0.83726233039
    outer loop
       vertex 3.6561600E+01 -1.828800E+00  0.000000E+00
       vertex 3.9624000E+01 -1.828800E+00 2.0000000E+00
       vertex 3.9624000E+01 1.8288000E+00 2.0000000E+00
    endloop
endfacet
facet normal  -0.5468014174 0.0           0.83726233039
    outer loop
       vertex 3.6561600E+01 -1.828800E+00  0.000000E+00
       vertex 3.9624000E+01 1.8288000E+00 2.0000000E+00
       vertex 3.6561600E+01 1.8288000E+00  0.000000E+00
    endloop
endfacet
facet normal  0.0           0.0           1.0          
    outer loop
       vertex 3.9624000E+01 -1.828800E+00 2.0000000E+00
       vertex 1.2617354E+02 -1.828800E+00 2.0000000E+00
       vertex 1.2617354E+02 1.8288000E+00 2.0000000E+00
    endloop
endfacet
facet normal  0.0           0.0           1.0          
    outer loop
       vertex 3.9624000E+01 -1.828800E+00 2.0000000E+00
       vertex 1.2617354E+02 1.8288000E+00 2.0000000E+00
       vertex 3.9624000E+01 1.8288000E+00 2.0000000E+00
    endloop
endfacet
endsolid
